<svg width="180" height="180" viewBox="0 0 180 180" fill="none" xmlns="http://www.w3.org/2000/svg">
  <style>
    @media (prefers-color-scheme: light) {
      .bg { fill: #0070CC; }
      .cloud { fill: white; }
    }
    @media (prefers-color-scheme: dark) {
      .bg { fill: #1a1a1a; }
      .cloud { fill: #e0e0e0; }
    }
  </style>
  <rect class="bg" width="180" height="180" rx="37" />
  <path class="cloud" d="M135 108H52c-11-0.5-20-9.5-20-21 0-11.5 9-20.5 20-21 0.5-15 13-27 28.5-27 12 0 22 7.5 26 18 3-2 6.5-3 10.5-3 13 0 23 10.5 23 23.5 0 1-0.1 2-0.2 3C149.5 83 157 92 157 103c0 0.5 0 1-0.1 1.5-4.5 2-12 3.5-21.9 3.5z"/>
</svg>
